# xmcd CD Database Entry
#
# Track frame offsets:
# 150
# 18712
# 42674
# 63062
# 83658
# 104363
# 123466
# 141507
# 159023
# 177075
#
# Disc length: 2612 seconds
#
# Revision: 2
# Processed by: cddbd v1.4PL0 Copyright (c) Steve Scherf et al.
# Submitted via: tcd 2.0b
#
DISCID=7f0a320a
DTITLE=周杰倫 - 八度空間
DYEAR=1900
DGENRE=
TTITLE0=半獸人
TTITLE1=半島鐵盒
TTITLE2=暗號
TTITLE3=龍拳
TTITLE4=火車叼位去
TTITLE5=分裂
TTITLE6=爺爺泡的茶
TTITLE7=回到過去
TTITLE8=米蘭的小鐵匠
TTITLE9=最後的戰役
EXTD=
EXTT0=
EXTT1=
EXTT2=
EXTT3=
EXTT4=
EXTT5=
EXTT6=
EXTT7=
EXTT8=
EXTT9=
PLAYORDER=
